<mxfile host="app.diagrams.net" modified="2024-02-04T10:41:10.568Z" agent="Mozilla/5.0 (Windows NT 10.0; Win64; x64) AppleWebKit/537.36 (KHTML, like Gecko) Chrome/122.0.0.0 Safari/537.36 Edg/122.0.0.0/8mqY1SuL-72" version="23.0.2" etag="6SZZLf24FlKtTlDvIHBh" type="github">
  <diagram name="Page-1" id="_GPJJrfROHcFQs_7IgmY">
    <mxGraphModel>
      <root>
        <mxCell id="0" />
        <mxCell id="1" parent="0" />
      </root>
    </mxGraphModel>
  </diagram>
</mxfile>
